<?xml version="1.0" encoding="UTF-8"?>
<svg version="1.1" xmlns="http://www.w3.org/2000/svg" width="248" height="248">
<path d="M0 0 C81.84 0 163.68 0 248 0 C248 81.84 248 163.68 248 248 C166.16 248 84.32 248 0 248 C0 166.16 0 84.32 0 0 Z " fill="#111211" transform="translate(0,0)"/>
<path d="M0 0 C2.64 0 5.28 0 8 0 C8.02578125 1.08539063 8.0515625 2.17078125 8.078125 3.2890625 C8.13443738 4.73441349 8.191784 6.17972444 8.25 7.625 C8.26417969 8.33785156 8.27835938 9.05070313 8.29296875 9.78515625 C8.52756401 14.89933293 9.65593618 17.93004478 13 22 C16.39711132 23.91631921 19.13535319 24.22083696 23 24 C24.66227326 20.35883 25.2724556 17.49709631 25.25 13.5 C25.25515625 12.5821875 25.2603125 11.664375 25.265625 10.71875 C24.98262598 7.8221718 24.20350245 5.63624347 23 3 C22.34 3 21.68 3 21 3 C21 2.01 21 1.02 21 0 C23.23137263 0.22947811 25.46013156 0.48445556 27.6875 0.75 C28.92886719 0.88921875 30.17023438 1.0284375 31.44921875 1.171875 C35.32277923 2.07527964 37.17328031 3.25194598 40 6 C41.23689062 8.47378124 41.13310087 10.17915317 41.125 12.9375 C41.12886719 14.25041016 41.12886719 14.25041016 41.1328125 15.58984375 C41 18 41 18 40 21 C39.01 21.495 39.01 21.495 38 22 C37.72929688 22.77859375 37.45859375 23.5571875 37.1796875 24.359375 C35.70590824 27.65829812 34.24054018 28.49346399 31.125 30.25 C29.82949219 31.00023437 29.82949219 31.00023437 28.5078125 31.765625 C22.63884706 34.65439927 16.43358025 34.72535464 10 34 C5.46979394 32.38551167 1.41696185 30.41696185 -2 27 C-2 26.01 -2 25.02 -2 24 C-3.32 24 -4.64 24 -6 24 C-7.75 22.5 -7.75 22.5 -9 21 C-9 21.66 -9 22.32 -9 23 C-9.66 23 -10.32 23 -11 23 C-11.20625 22.360625 -11.4125 21.72125 -11.625 21.0625 C-12.89538209 18.65074923 -12.89538209 18.65074923 -16.125 18.25 C-17.07375 18.1675 -18.0225 18.085 -19 18 C-19 17.34 -19 16.68 -19 16 C-19.99 15.67 -20.98 15.34 -22 15 C-20.125 9.25 -20.125 9.25 -19 7 C-15.71890709 5.67193858 -12.76555205 4.96874027 -9.25 4.5 C-5.92159951 4.31584196 -5.92159951 4.31584196 -4 2 C-2.68 2 -1.36 2 0 2 C0 1.34 0 0.68 0 0 Z " fill="#525237" transform="translate(46,120)"/>
<path d="M0 0 C3.72357534 2.08520219 5.43385707 4.09481244 7 8 C7.77478044 15.60693526 7.25616573 22.08064783 4 29 C3.34 29 2.68 29 2 29 C1.65582031 30.12148437 1.65582031 30.12148437 1.3046875 31.265625 C-0.26756561 34.56076625 -1.86282459 35.72996545 -4.875 37.75 C-5.73867187 38.34296875 -6.60234375 38.9359375 -7.4921875 39.546875 C-12.33506411 42.3530278 -17.49902536 42.79838707 -23 42 C-27.4912728 40.16812653 -31.89089466 37.80327666 -35 34 C-35 33.01 -35 32.02 -35 31 C-35.66 31 -36.32 31 -37 31 C-36.62422289 24.86230717 -34.9580593 21.73036356 -31 17 C-30.34 17 -29.68 17 -29 17 C-29 16.34 -29 15.68 -29 15 C-28.01 15 -27.02 15 -26 15 C-26 15.99 -26 16.98 -26 18 C-25.34 18 -24.68 18 -24 18 C-23.7525 19.258125 -23.505 20.51625 -23.25 21.8125 C-22.51614484 24.8276875 -22.26584812 25.76542813 -19.875 27.875 C-19.25625 28.24625 -18.6375 28.6175 -18 29 C-18 29.66 -18 30.32 -18 31 C-16.741875 31.103125 -15.48375 31.20625 -14.1875 31.3125 C-13.47980469 31.37050781 -12.77210938 31.42851563 -12.04296875 31.48828125 C-9.77631334 31.16358764 -9.77631334 31.16358764 -8.25 28.875 C-6.8105501 25.56426523 -6.69407568 23.27970442 -6.8125 19.6875 C-6.83957031 18.61886719 -6.86664063 17.55023438 -6.89453125 16.44921875 C-6.94673828 15.23685547 -6.94673828 15.23685547 -7 14 C-8.41152344 14.05027344 -8.41152344 14.05027344 -9.8515625 14.1015625 C-13 14 -13 14 -15.375 12.375 C-17 10 -17 10 -17.5625 7 C-17 4 -17 4 -15.25 1.625 C-10.25856865 -0.87071567 -5.47282751 -0.75800935 0 0 Z " fill="#707662" transform="translate(205,67)"/>
<path d="M0 0 C0.99 0 1.98 0 3 0 C3 0.99 3 1.98 3 3 C3.66 3 4.32 3 5 3 C5.2475 4.258125 5.495 5.51625 5.75 6.8125 C6.48385516 9.8276875 6.73415188 10.76542813 9.125 12.875 C9.74375 13.24625 10.3625 13.6175 11 14 C11 14.66 11 15.32 11 16 C13.85306644 16.2338579 16.20377535 16.41446017 19 16 C22.99650054 12.13241884 22.70301021 6.27412905 23 1 C23.33 1 23.66 1 24 1 C24.02698422 3.43757413 24.04683099 5.87484915 24.0625 8.3125 C24.07087891 9.00279297 24.07925781 9.69308594 24.08789062 10.40429688 C24.10307906 13.5483025 24.00193327 15.99420019 23 19 C22.34 19 21.68 19 21 19 C21 19.99 21 20.98 21 22 C17.04 22 13.08 22 9 22 C9 21.34 9 20.68 9 20 C8.01 19.67 7.02 19.34 6 19 C6.33 17.68 6.66 16.36 7 15 C3.7 14.67 0.4 14.34 -3 14 C-2.33759874 18.77459168 -2.33759874 18.77459168 0.6328125 22.3203125 C5.33710726 24.81082149 9.72473223 25.62319516 15 26 C15 26.33 15 26.66 15 27 C6.84381397 27.64731635 1.5237778 25.81002619 -4.7578125 20.51953125 C-6 19 -6 19 -6 16 C-6.66 16 -7.32 16 -8 16 C-7.62422289 9.86230717 -5.9580593 6.73036356 -2 2 C-1.34 2 -0.68 2 0 2 C0 1.34 0 0.68 0 0 Z " fill="#666B55" transform="translate(176,82)"/>
<path d="M0 0 C1.75570312 0.31904297 1.75570312 0.31904297 3.546875 0.64453125 C4.43890625 0.82371094 5.3309375 1.00289062 6.25 1.1875 C5.59 2.8375 4.93 4.4875 4.25 6.1875 C4.91 6.1875 5.57 6.1875 6.25 6.1875 C5.92 7.5075 5.59 8.8275 5.25 10.1875 C4.755 9.1975 4.755 9.1975 4.25 8.1875 C1.9204053 7.68508678 1.9204053 7.68508678 -0.75 8.1875 C-3.10022689 11.12528361 -4.56100979 13.62052938 -5.75 17.1875 C-7.45703125 18.8359375 -7.45703125 18.8359375 -9.5625 20.5625 C-12.15289783 22.71431196 -13.79312506 24.25506259 -15.625 27.125 C-18.28883254 29.71048453 -19.37143274 29.48983595 -23 29.5 C-24.58473048 29.41984745 -26.16906283 29.3232675 -27.75 29.1875 C-27.0546875 25.40625 -27.0546875 25.40625 -24.3125 23.4375 C-21.75 22.1875 -21.75 22.1875 -19.75 22.1875 C-19.09 20.8675 -18.43 19.5475 -17.75 18.1875 C-17.09 18.1875 -16.43 18.1875 -15.75 18.1875 C-15.42 17.1975 -15.09 16.2075 -14.75 15.1875 C-12.6875 13.5 -12.6875 13.5 -10.75 12.1875 C-10.935625 11.465625 -11.12125 10.74375 -11.3125 10 C-11.78634186 6.95387376 -11.74653618 5.10045191 -10.75 2.1875 C-7.26923129 -1.44351772 -4.74207682 -0.9009946 0 0 Z " fill="#2E302D" transform="translate(91.75,218.8125)"/>
<path d="M0 0 C2.97 0 5.94 0 9 0 C9.06058594 0.78503906 9.12117188 1.57007812 9.18359375 2.37890625 C9.26738281 3.42949219 9.35117187 4.48007813 9.4375 5.5625 C9.52386719 6.66078125 9.61023437 7.7590625 9.69921875 8.890625 C9.96185671 12.13372915 9.96185671 12.13372915 10.75 15.8125 C11.08260772 20.05324845 9.91654587 22.24357009 8 26 C6.1875 25.8125 6.1875 25.8125 4 25 C2.95355934 23.36209288 1.9601817 21.68991979 1 20 C-0.3303125 18.9171875 -0.3303125 18.9171875 -1.6875 17.8125 C-4.67941772 14.17368115 -4.48920788 11.8763991 -4.37109375 7.3046875 C-4 5 -4 5 -2 2 C-1.34 2 -0.68 2 0 2 C0 1.34 0 0.68 0 0 Z " fill="#6F7059" transform="translate(43,123)"/>
<path d="M0 0 C2.64 0 5.28 0 8 0 C8.06058594 1.10859375 8.12117188 2.2171875 8.18359375 3.359375 C8.26802951 4.8229282 8.35267599 6.28646925 8.4375 7.75 C8.47681641 8.47960937 8.51613281 9.20921875 8.55664062 9.9609375 C8.76147098 13.4272973 9.0852002 16.65333026 10 20 C7.19358805 17.54438955 6.06421329 15.72617673 5.734375 11.99609375 C5.74857726 8.98876484 5.82762431 6.00220998 6 3 C3.03 3 0.06 3 -3 3 C-3 3.66 -3 4.32 -3 5 C-3.48855469 5.43441406 -3.97710937 5.86882812 -4.48046875 6.31640625 C-6.52086496 8.57710231 -6.37120552 9.93448694 -6.3125 12.9375 C-6.30863281 13.79214844 -6.30476563 14.64679688 -6.30078125 15.52734375 C-5.98058245 18.15962739 -5.47217084 19.79912922 -4 22 C-3.01 22.33 -2.02 22.66 -1 23 C0.6875 26.0625 0.6875 26.0625 2 29 C0.68 28.34 -0.64 27.68 -2 27 C-2 26.01 -2 25.02 -2 24 C-3.32 24 -4.64 24 -6 24 C-7.75 22.5 -7.75 22.5 -9 21 C-9 21.66 -9 22.32 -9 23 C-9.66 23 -10.32 23 -11 23 C-11.20625 22.360625 -11.4125 21.72125 -11.625 21.0625 C-12.89538209 18.65074923 -12.89538209 18.65074923 -16.125 18.25 C-17.07375 18.1675 -18.0225 18.085 -19 18 C-19 17.34 -19 16.68 -19 16 C-19.99 15.67 -20.98 15.34 -22 15 C-20.125 9.25 -20.125 9.25 -19 7 C-15.71890709 5.67193858 -12.76555205 4.96874027 -9.25 4.5 C-5.92159951 4.31584196 -5.92159951 4.31584196 -4 2 C-2.68 2 -1.36 2 0 2 C0 1.34 0 0.68 0 0 Z " fill="#403D32" transform="translate(46,120)"/>
<path d="M0 0 C-0.2475 1.0725 -0.495 2.145 -0.75 3.25 C-1.42428622 7.02745496 -1.42428622 7.02745496 0.9375 9.4375 C1.618125 9.953125 2.29875 10.46875 3 11 C1.72921341 16.46438233 -0.39806715 18.84181079 -5 22 C-7.6875 22.9375 -7.6875 22.9375 -10 23 C-10.99 22.34 -11.98 21.68 -13 21 C-13 20.34 -13 19.68 -13 19 C-12.34 19 -11.68 19 -11 19 C-11 15.7 -11 12.4 -11 9 C-10.34 9 -9.68 9 -9 9 C-9 8.34 -9 7.68 -9 7 C-9.66 7 -10.32 7 -11 7 C-10.06812096 3.78078148 -9.62068502 2.34301014 -6.625 0.6875 C-4 0 -4 0 0 0 Z " fill="#2E2E2E" transform="translate(25,109)"/>
<path d="M0 0 C0.66 0.33 1.32 0.66 2 1 C1.87431641 2.12148437 1.87431641 2.12148437 1.74609375 3.265625 C1.59333984 4.74289063 1.59333984 4.74289063 1.4375 6.25 C1.33308594 7.22453125 1.22867188 8.1990625 1.12109375 9.203125 C1.00923962 11.78659466 1.07925111 13.59612865 2 16 C2.66 16.33 3.32 16.66 4 17 C4.37756808 18.32148827 4.7018576 19.65835921 5 21 C5.350625 21.763125 5.70125 22.52625 6.0625 23.3125 C7.22318654 26.63980143 7.06487961 29.49650113 7 33 C7.33 33.99 7.66 34.98 8 36 C7.34 36 6.68 36 6 36 C5.67 37.98 5.34 39.96 5 42 C5.55429688 41.69964844 6.10859375 41.39929688 6.6796875 41.08984375 C7.40414062 40.70957031 8.12859375 40.32929688 8.875 39.9375 C9.59429687 39.55464844 10.31359375 39.17179687 11.0546875 38.77734375 C11.69664062 38.52082031 12.33859375 38.26429688 13 38 C13.66 38.33 14.32 38.66 15 39 C14.67 41.31 14.34 43.62 14 46 C11.6875 46.625 11.6875 46.625 9 47 C8.01 46.34 7.02 45.68 6 45 C6 44.34 6 43.68 6 43 C4.35 42.34 2.7 41.68 1 41 C1.375 38.0625 1.375 38.0625 2 35 C2.99 34.505 2.99 34.505 4 34 C3.47653084 30.75449121 2.6135614 27.73040868 1.5625 24.625 C1.29953125 23.84511719 1.0365625 23.06523437 0.765625 22.26171875 C0.51296875 21.51535156 0.2603125 20.76898438 0 20 C-2.06925815 13.79222555 -3.11793393 8.3538018 -1 2 C-0.67 1.34 -0.34 0.68 0 0 Z " fill="#272927" transform="translate(130,164)"/>
<path d="M0 0 C0.556875 0.7425 1.11375 1.485 1.6875 2.25 C3.90826999 5.07544208 3.90826999 5.07544208 6.75 7.1875 C7.4925 7.785625 8.235 8.38375 9 9 C9 9.66 9 10.32 9 11 C10.65 11 12.3 11 14 11 C14.33 11.99 14.66 12.98 15 14 C14.67 14.66 14.34 15.32 14 16 C6.11397658 16.4731614 0.79219135 16.17981006 -6 12 C-5.01 11.67 -4.02 11.34 -3 11 C-2.87625 10.113125 -2.7525 9.22625 -2.625 8.3125 C-2.05587264 5.29612498 -1.23385564 2.79673946 0 0 Z " fill="#6A6A4D" transform="translate(54,138)"/>
<path d="M0 0 C6.625 -0.125 6.625 -0.125 10 1 C10 2.32 10 3.64 10 5 C10.66 5.33 11.32 5.66 12 6 C12 6.66 12 7.32 12 8 C12.61488281 7.97679688 13.22976562 7.95359375 13.86328125 7.9296875 C14.67152344 7.91164063 15.47976562 7.89359375 16.3125 7.875 C17.11300781 7.85179688 17.91351563 7.82859375 18.73828125 7.8046875 C21 8 21 8 24 10 C21.38161579 12.61838421 20.08933031 12.35821377 16.4375 12.4375 C10.1043331 12.36119678 4.57518725 10.57518725 0 6 C-0.04080783 4.00041636 -0.04254356 1.99954746 0 0 Z " fill="#7B846C" transform="translate(173,96)"/>
<path d="M0 0 C2.31386295 0.28064918 4.62609008 0.57481689 6.9375 0.875 C8.86916016 1.11863281 8.86916016 1.11863281 10.83984375 1.3671875 C12.40412109 1.68042969 12.40412109 1.68042969 14 2 C14.33 2.66 14.66 3.32 15 4 C13.68 4 12.36 4 11 4 C10.67 5.65 10.34 7.3 10 9 C9.01 8.67 8.02 8.34 7 8 C7.02320312 8.79664063 7.04640625 9.59328125 7.0703125 10.4140625 C7.24956063 20.93848858 7.24956063 20.93848858 5 26 C2.03 26 -0.94 26 -4 26 C-4.33 25.34 -4.66 24.68 -5 24 C-2.69 24 -0.38 24 2 24 C3.66227326 20.35883 4.2724556 17.49709631 4.25 13.5 C4.25515625 12.5821875 4.2603125 11.664375 4.265625 10.71875 C3.98262598 7.8221718 3.20350245 5.63624347 2 3 C1.34 3 0.68 3 0 3 C0 2.01 0 1.02 0 0 Z " fill="#4B4C3A" transform="translate(67,120)"/>
<path d="M0 0 C3.71864254 2.08243982 5.44765133 4.09213094 7 8 C7.265625 11.05859375 7.265625 11.05859375 7.25 14.4375 C7.25515625 15.54996094 7.2603125 16.66242188 7.265625 17.80859375 C7.00441051 20.947009 6.33378454 23.16835425 5 26 C4.67 26 4.34 26 4 26 C3.92253494 21.42956128 4.07755998 17.48042297 5 13 C4.67 12.34 4.34 11.68 4 11 C3.960008 9.00039988 3.95653201 6.99952758 4 5 C1.525 4.505 1.525 4.505 -1 4 C-1 3.34 -1 2.68 -1 2 C-2.485 3.0209375 -2.485 3.0209375 -4 4.0625 C-8.32006978 6.58033208 -11.20979426 6.00846437 -16 5 C-16 6.65 -16 8.3 -16 10 C-16.33 10 -16.66 10 -17 10 C-17.41195187 6.3748235 -17.44853908 4.60873162 -15.25 1.625 C-10.25856865 -0.87071567 -5.47282751 -0.75800935 0 0 Z " fill="#595B4B" transform="translate(205,67)"/>
<path d="M0 0 C1 2 1 2 0.1875 4.9375 C-2.65849522 8.92189331 -5.07385423 9.25823285 -9.72265625 10.26171875 C-12.35030945 10.85332484 -12.35030945 10.85332484 -14 14 C-17.5559841 14.85607025 -19.9788559 15.39274773 -23.4375 14.0625 C-23.953125 13.711875 -24.46875 13.36125 -25 13 C-25 11.35 -25 9.7 -25 8 C-24.28714844 8.03480469 -23.57429687 8.06960937 -22.83984375 8.10546875 C-13.25681347 8.37632156 -7.53142523 5.68699456 0 0 Z " fill="#1D221C" transform="translate(205,100)"/>
<path d="M0 0 C1.85646001 2.78469002 2.45157815 4.2681416 3.125 7.4375 C3.37636719 8.58025391 3.37636719 8.58025391 3.6328125 9.74609375 C4 12 4 12 4 16 C-0.32059823 17.09845718 -4.61667943 18.17812739 -9 19 C-10 17 -10 17 -9.375 14.6875 C-7.73375959 11.47962101 -5.63662947 9.42847451 -3 7 C-2.01 7.33 -1.02 7.66 0 8 C0 5.36 0 2.72 0 0 Z " fill="#363733" transform="translate(103,143)"/>
<path d="M0 0 C2.97 0.495 2.97 0.495 6 1 C6 1.99 6 2.98 6 4 C6.66 4 7.32 4 8 4 C9.20272819 6.40545638 9.10071472 7.94996953 9.0625 10.625 C9.05347656 11.44226563 9.04445313 12.25953125 9.03515625 13.1015625 C9.02355469 13.72804687 9.01195312 14.35453125 9 15 C5.26512223 14.5020163 3.18762365 14.12508244 0 12 C-0.29296875 9.1796875 -0.29296875 9.1796875 -0.1875 5.875 C-0.16042969 4.77929688 -0.13335937 3.68359375 -0.10546875 2.5546875 C-0.07066406 1.71164063 -0.03585938 0.86859375 0 0 Z " fill="#918F70" transform="translate(42,126)"/>
<path d="M0 0 C0.33 0.66 0.66 1.32 1 2 C3.52733235 2.65555119 3.52733235 2.65555119 6 3 C6.75 4.625 6.75 4.625 7 7 C5.5625 10.25 5.5625 10.25 3 13 C0.15142261 13.53173445 -2.07118639 13.29288136 -5 13 C-4.690625 12.443125 -4.38125 11.88625 -4.0625 11.3125 C-2.94238179 8.87459567 -2.43962636 6.63775814 -2 4 C-1.34 4 -0.68 4 0 4 C0 2.68 0 1.36 0 0 Z " fill="#3E4140" transform="translate(21,115)"/>
<path d="M0 0 C0.33 0 0.66 0 1 0 C1.02698422 2.43757413 1.04683099 4.87484915 1.0625 7.3125 C1.07087891 8.00279297 1.07925781 8.69308594 1.08789062 9.40429688 C1.10307906 12.5483025 1.00193327 14.99420019 0 18 C-0.66 18 -1.32 18 -2 18 C-2 18.99 -2 19.98 -2 21 C-8.33830846 21.48756219 -8.33830846 21.48756219 -11.375 19.25 C-12.94785432 17.07220172 -13.62376963 15.63361256 -14 13 C-13.34 13 -12.68 13 -12 13 C-12 13.66 -12 14.32 -12 15 C-9.14693356 15.2338579 -6.79622465 15.41446017 -4 15 C-0.00349946 11.13241884 -0.29698979 5.27412905 0 0 Z " fill="#545D49" transform="translate(199,83)"/>
<path d="M0 0 C0.33 0 0.66 0 1 0 C1.75324968 8.11835767 0.98493403 13.35647816 -3.4921875 20.234375 C-3.98976562 20.81703125 -4.48734375 21.3996875 -5 22 C-5.66 22 -6.32 22 -7 22 C-7.103125 22.61875 -7.20625 23.2375 -7.3125 23.875 C-8 26 -8 26 -11 28 C-10.67 26.68 -10.34 25.36 -10 24 C-9.34 24 -8.68 24 -8 24 C-6.92746838 19.96130949 -6.43145276 15.89188536 -5.9375 11.75 C-5.84662109 11.00492188 -5.75574219 10.25984375 -5.66210938 9.4921875 C-5.43916897 7.66172944 -5.2192822 5.83089991 -5 4 C-4.67 4 -4.34 4 -4 4 C-3.67 5.65 -3.34 7.3 -3 9 C-2.34 8.67 -1.68 8.34 -1 8 C-1.020625 7.05125 -1.04125 6.1025 -1.0625 5.125 C-1 2 -1 2 0 0 Z " fill="#1A1B1B" transform="translate(217,72)"/>
<path d="M0 0 C1.65 0 3.3 0 5 0 C5.54466387 4.084979 6 7.8725485 6 12 C3.03 11.505 3.03 11.505 0 11 C0 10.34 0 9.68 0 9 C-0.99 8.67 -1.98 8.34 -3 8 C-1.125 2.25 -1.125 2.25 0 0 Z " fill="#292A28" transform="translate(27,127)"/>
<path d="M0 0 C2.97 0.99 5.94 1.98 9 3 C9 2.01 9 1.02 9 0 C9.99 0 10.98 0 12 0 C11.32829194 3.8063457 10.27253436 7.35206816 9 11 C7.1875 10.8125 7.1875 10.8125 5 10 C3.375 7.5 3.375 7.5 2 5 C1.34 4.67 0.68 4.34 0 4 C0 2.68 0 1.36 0 0 Z " fill="#7B7956" transform="translate(42,138)"/>
<path d="M0 0 C0.99 0 1.98 0 3 0 C3 0.99 3 1.98 3 3 C3.66 3 4.32 3 5 3 C5 4.98 5 6.96 5 9 C4.01 9 3.02 9 2 9 C1.67 8.34 1.34 7.68 1 7 C-0.65 7 -2.3 7 -4 7 C-4 7.99 -4 8.98 -4 10 C-4.66 10 -5.32 10 -6 10 C-6 11.98 -6 13.96 -6 16 C-6.66 16 -7.32 16 -8 16 C-7.62422289 9.86230717 -5.9580593 6.73036356 -2 2 C-1.34 2 -0.68 2 0 2 C0 1.34 0 0.68 0 0 Z " fill="#4A4D40" transform="translate(176,82)"/>
<path d="M0 0 C0.99 0 1.98 0 3 0 C3.37634203 6.80203375 2.77471079 11.75690073 0 18 C-0.66 18 -1.32 18 -2 18 C-2.33 15.69 -2.66 13.38 -3 11 C-2.01 10.67 -1.02 10.34 0 10 C0 6.7 0 3.4 0 0 Z " fill="#767452" transform="translate(82,127)"/>
<path d="M0 0 C2.3125 -0.25 2.3125 -0.25 5 0 C7.08503071 2.14418051 7.93220288 3.4891003 8.328125 6.47265625 C8.30234375 7.32730469 8.2765625 8.18195313 8.25 9.0625 C8.23453125 9.91972656 8.2190625 10.77695313 8.203125 11.66015625 C8 14 8 14 7 17 C6.01 17.33 5.02 17.66 4 18 C4.66 13.05 5.32 8.1 6 3 C5.01 3 4.02 3 3 3 C3 6.3 3 9.6 3 13 C2.67 13 2.34 13 2 13 C1.855625 11.783125 1.71125 10.56625 1.5625 9.3125 C1.17219047 6.17329623 0.67648144 3.0924866 0 0 Z " fill="#646345" transform="translate(79,124)"/>
<path d="M0 0 C2.64 0 5.28 0 8 0 C8.06058594 1.10859375 8.12117188 2.2171875 8.18359375 3.359375 C8.26802951 4.8229282 8.35267599 6.28646925 8.4375 7.75 C8.47681641 8.47960937 8.51613281 9.20921875 8.55664062 9.9609375 C8.76147098 13.4272973 9.0852002 16.65333026 10 20 C7.19358805 17.54438955 6.06421329 15.72617673 5.734375 11.99609375 C5.74857726 8.98876484 5.82762431 6.00220998 6 3 C3.03 3 0.06 3 -3 3 C-3.33 3.66 -3.66 4.32 -4 5 C-4 4.01 -4 3.02 -4 2 C-2.68 2 -1.36 2 0 2 C0 1.34 0 0.68 0 0 Z " fill="#424637" transform="translate(46,120)"/>
<path d="M0 0 C1.65 0.33 3.3 0.66 5 1 C5 1.99 5 2.98 5 4 C5.99 4 6.98 4 8 4 C8 3.34 8 2.68 8 2 C10.64 2 13.28 2 16 2 C15.38125 2.28875 14.7625 2.5775 14.125 2.875 C11.86674235 3.93720042 11.86674235 3.93720042 10 6 C7.67504723 6.38749213 5.3400417 6.71758117 3 7 C1.66082739 7.30903983 0.32346746 7.62942911 -1 8 C-0.67 5.36 -0.34 2.72 0 0 Z " fill="#262928" transform="translate(30,119)"/>
<path d="M0 0 C1.65 0 3.3 0 5 0 C5.26218749 3.14624993 5.24754367 4.61837017 3.5 7.3125 C2.7575 8.1478125 2.7575 8.1478125 2 9 C4.31 9 6.62 9 9 9 C7.25689748 11.11007147 6.13662075 11.95559826 3.5 12.8125 C1 13 1 13 -2 11 C-2 10.34 -2 9.68 -2 9 C-1.34 9 -0.68 9 0 9 C0 6.03 0 3.06 0 0 Z " fill="#323432" transform="translate(14,119)"/>
<path d="M0 0 C2 3 2 3 2 5 C2.99 4.67 3.98 4.34 5 4 C3.57106495 7.58770251 1.98491303 8.96510596 -1.375 10.8125 C-2.14585938 11.25207031 -2.91671875 11.69164062 -3.7109375 12.14453125 C-6.31101605 13.11623296 -7.43992191 12.95272312 -10 12 C-10 11.01 -10 10.02 -10 9 C-7.36 8.34 -4.72 7.68 -2 7 C-1.34 4.69 -0.68 2.38 0 0 Z " fill="#5B5B41" transform="translate(78,140)"/>
<path d="M0 0 C-0.66 1.32 -1.32 2.64 -2 4 C-1.34 4.33 -0.68 4.66 0 5 C0 6.98 0 8.96 0 11 C-0.66 10.67 -1.32 10.34 -2 10 C-2 9.01 -2 8.02 -2 7 C-2.639375 6.690625 -3.27875 6.38125 -3.9375 6.0625 C-6 5 -6 5 -7 4 C-8.34747084 3.76924918 -9.70377565 3.58846937 -11.0625 3.4375 C-12.361875 3.293125 -13.66125 3.14875 -15 3 C-10.12206417 -0.25195722 -5.77608621 -0.11325659 0 0 Z " fill="#2E2F2A" transform="translate(212,64)"/>
<path d="M0 0 C0.66 0.33 1.32 0.66 2 1 C1.87431641 2.12148437 1.87431641 2.12148437 1.74609375 3.265625 C1.59333984 4.74289063 1.59333984 4.74289063 1.4375 6.25 C1.33308594 7.22453125 1.22867188 8.1990625 1.12109375 9.203125 C1.00923962 11.78659466 1.07925111 13.59612865 2 16 C2.66 16.33 3.32 16.66 4 17 C3.67 17.99 3.34 18.98 3 20 C1.68 19.67 0.36 19.34 -1 19 C-2.30931587 12.45342063 -3.07915998 6.15831996 0 0 Z " fill="#2F3131" transform="translate(130,164)"/>
<path d="M0 0 C1.85646001 2.78469002 2.45157815 4.2681416 3.125 7.4375 C3.29257813 8.19933594 3.46015625 8.96117187 3.6328125 9.74609375 C4 12 4 12 4 16 C1.36 16.66 -1.28 17.32 -4 18 C-3.67 16.35 -3.34 14.7 -3 13 C-1.02 13.495 -1.02 13.495 1 14 C0.9278125 13.32453125 0.855625 12.6490625 0.78125 11.953125 C0.6884375 11.06109375 0.595625 10.1690625 0.5 9.25 C0.4071875 8.36828125 0.314375 7.4865625 0.21875 6.578125 C0 4 0 4 0 0 Z " fill="#272725" transform="translate(103,143)"/>
<path d="M0 0 C-1.37965734 2.75931468 -3.08580615 3.29421134 -5.8125 4.6875 C-6.68519531 5.14511719 -7.55789062 5.60273438 -8.45703125 6.07421875 C-11.2078412 7.07566569 -12.31485266 7.03274898 -15 6 C-12.76436527 2.6465479 -11.70594127 2.18383592 -8.0625 0.75 C-7.18722656 0.39421875 -6.31195313 0.0384375 -5.41015625 -0.328125 C-3 -1 -3 -1 0 0 Z " fill="#2E302D" transform="translate(56,229)"/>
<path d="M0 0 C0.98097656 0.32742187 1.96195313 0.65484375 2.97265625 0.9921875 C7.16980492 2.19137284 11.10064102 2.22816407 15.4375 2.125 C16.16904297 2.11597656 16.90058594 2.10695312 17.65429688 2.09765625 C19.43634298 2.07436153 21.21821759 2.0385019 23 2 C22.67 3.32 22.34 4.64 22 6 C22 5.34 22 4.68 22 4 C16.06 4.495 16.06 4.495 10 5 C10 5.99 10 6.98 10 8 C8 8 8 8 6.375 6.625 C5 5 5 5 5 3 C2.525 2.01 2.525 2.01 0 1 C0 0.67 0 0.34 0 0 Z " fill="#2A281D" transform="translate(49,151)"/>
<path d="M0 0 C0.33 0 0.66 0 1 0 C2.51708428 12.66970387 2.51708428 12.66970387 0 18 C-2.97 18 -5.94 18 -9 18 C-9.33 17.34 -9.66 16.68 -10 16 C-7.69 16 -5.38 16 -3 16 C-1.35199144 12.33552568 -0.66419027 9.18796534 -0.375 5.1875 C-0.30023438 4.21167969 -0.22546875 3.23585937 -0.1484375 2.23046875 C-0.09945312 1.49441406 -0.05046875 0.75835937 0 0 Z " fill="#353828" transform="translate(72,128)"/>
<path d="M0 0 C0.99 0.495 0.99 0.495 2 1 C2.12375 2.093125 2.2475 3.18625 2.375 4.3125 C3.08095693 8.47764591 3.69559508 9.49936925 7 12 C11.68859678 14.87709348 15.62350158 15.53650876 21 16 C21 16.33 21 16.66 21 17 C12.77332494 17.65291072 7.71164974 15.71029241 1.25390625 10.625 C-0.43493073 8.43635146 -0.30612408 7.04085378 -0.1875 4.3125 C-0.16042969 3.50425781 -0.13335937 2.69601563 -0.10546875 1.86328125 C-0.07066406 1.24839844 -0.03585938 0.63351563 0 0 Z " fill="#5B5E4E" transform="translate(170,92)"/>
<path d="M0 0 C4.84688192 0.78175515 9.3766367 2.39844278 14 4 C14 4.66 14 5.32 14 6 C4.1122449 6.58163265 4.1122449 6.58163265 0 3 C0 2.01 0 1.02 0 0 Z " fill="#98A28E" transform="translate(178,102)"/>
<path d="M0 0 C2.96175123 0.61277612 4.38058783 1.25372522 7 3 C7.6875 5.625 7.6875 5.625 8 8 C7.01 8 6.02 8 5 8 C4.34 8.66 3.68 9.32 3 10 C0 3.375 0 3.375 0 0 Z " fill="#20211C" transform="translate(95,135)"/>
<path d="M0 0 C2.31 0 4.62 0 7 0 C7 1.65 7 3.3 7 5 C6.34 5 5.68 5 5 5 C5 5.66 5 6.32 5 7 C1.125 6.125 1.125 6.125 0 5 C-0.04063832 3.33382885 -0.042721 1.66611905 0 0 Z " fill="#647685" transform="translate(189,72)"/>
<path d="M0 0 C1 2 1 2 0 5.0625 C-2 8 -2 8 -5.375 8.875 C-11.33870968 9.08064516 -11.33870968 9.08064516 -14 9 C-13.44828125 8.74476562 -12.8965625 8.48953125 -12.328125 8.2265625 C-9.63362942 6.80697926 -7.23221272 5.13867746 -4.75 3.375 C-3.85796875 2.74335937 -2.9659375 2.11171875 -2.046875 1.4609375 C-1.37140625 0.97882813 -0.6959375 0.49671875 0 0 Z " fill="#3A3F36" transform="translate(205,100)"/>
<path d="M0 0 C3.465 1.485 3.465 1.485 7 3 C6.67 3.99 6.34 4.98 6 6 C4.1875 6.5625 4.1875 6.5625 2 7 C0.6520257 7.63654342 -0.68596724 8.29605388 -2 9 C-2.33 8.01 -2.66 7.02 -3 6 C-2.34 6 -1.68 6 -1 6 C-0.67 4.02 -0.34 2.04 0 0 Z " fill="#272824" transform="translate(44,89)"/>
<path d="M0 0 C2.475 0.99 2.475 0.99 5 2 C3.54744301 5.82946843 1.57104439 7.12050295 -2 9 C-2.125 5.625 -2.125 5.625 -2 2 C-1.34 1.34 -0.68 0.68 0 0 Z " fill="#262523" transform="translate(2,225)"/>
<path d="M0 0 C1.0625 1.875 1.0625 1.875 2 4 C1.67 4.66 1.34 5.32 1 6 C-1.31 6 -3.62 6 -6 6 C-5.67 5.34 -5.34 4.68 -5 4 C-4.34 4 -3.68 4 -3 4 C-3 3.01 -3 2.02 -3 1 C-2.01 0.67 -1.02 0.34 0 0 Z M-8 5 C-7.34 5.66 -6.68 6.32 -6 7 C-7.98 7.33 -9.96 7.66 -12 8 C-12 7.34 -12 6.68 -12 6 C-10.125 5.375 -10.125 5.375 -8 5 Z " fill="#20201E" transform="translate(112,220)"/>
<path d="M0 0 C0.625 1.8125 0.625 1.8125 1 4 C0.01 5.485 0.01 5.485 -1 7 C-2.65 6.67 -4.3 6.34 -6 6 C-6.33 4.68 -6.66 3.36 -7 2 C-2.25 0 -2.25 0 0 0 Z " fill="#3F423E" transform="translate(87,220)"/>
<path d="M0 0 C1.67542976 0.28604898 3.34385343 0.61781233 5 1 C4.67 2.98 4.34 4.96 4 7 C2.35 7.33 0.7 7.66 -1 8 C-1.04241723 5.66705225 -1.04092937 3.33297433 -1 1 C-0.67 0.67 -0.34 0.34 0 0 Z " fill="#505352" transform="translate(19,119)"/>
<path d="M0 0 C0.37125 0.495 0.7425 0.99 1.125 1.5 C3.74232618 3.59386094 5.73703391 3.14186809 9 3 C10 4 10 4 10.09765625 6.72265625 C10.08605469 7.82480469 10.07445312 8.92695312 10.0625 10.0625 C10.05347656 11.16722656 10.04445312 12.27195312 10.03515625 13.41015625 C10.02355469 14.26480469 10.01195312 15.11945313 10 16 C9.67 16 9.34 16 9 16 C9 13.03 9 10.06 9 7 C7.35 7 5.7 7 4 7 C4 6.34 4 5.68 4 5 C3.01 4.67 2.02 4.34 1 4 C0.3125 1.9375 0.3125 1.9375 0 0 Z " fill="#212E2B" transform="translate(189,77)"/>
<path d="M0 0 C0 3.3 0 6.6 0 10 C-1.32 9.67 -2.64 9.34 -4 9 C-4 6.36 -4 3.72 -4 1 C-2 0 -2 0 0 0 Z " fill="#8A8E92" transform="translate(36,126)"/>
<path d="M0 0 C0.33 0 0.66 0 1 0 C1 5.61 1 11.22 1 17 C0.01 17.33 -0.98 17.66 -2 18 C-2.34342449 19.33076989 -2.67619874 20.66431979 -3 22 C-3.99 22.66 -4.98 23.32 -6 24 C-5.67 22.68 -5.34 21.36 -5 20 C-4.34 20 -3.68 20 -3 20 C-1.92746838 15.96130949 -1.43145276 11.89188536 -0.9375 7.75 C-0.84662109 7.00492187 -0.75574219 6.25984375 -0.66210938 5.4921875 C-0.43916897 3.66172944 -0.2192822 1.83089991 0 0 Z " fill="#31342D" transform="translate(212,76)"/>
<path d="M0 0 C1.65 0 3.3 0 5 0 C5 1.65 5 3.3 5 5 C4.01 5 3.02 5 2 5 C1.67 6.32 1.34 7.64 1 9 C-1 6 -1 6 -0.625 2.8125 C-0.41875 1.884375 -0.2125 0.95625 0 0 Z " fill="#41413F" transform="translate(27,127)"/>
<path d="M0 0 C0.99 0.33 1.98 0.66 3 1 C0.94766315 3.2477975 -0.00667261 4.0022242 -3 5 C-3.33 5.99 -3.66 6.98 -4 8 C-6.64 8 -9.28 8 -12 8 C-11.67 7.34 -11.34 6.68 -11 6 C-10.34 6 -9.68 6 -9 6 C-9 5.34 -9 4.68 -9 4 C-7.68 4 -6.36 4 -5 4 C-4.154375 3.319375 -3.30875 2.63875 -2.4375 1.9375 C-1.633125 1.298125 -0.82875 0.65875 0 0 Z " fill="#222423" transform="translate(73,224)"/>
<path d="M0 0 C0.8353125 0.37125 0.8353125 0.37125 1.6875 0.75 C1.0275 2.4 0.3675 4.05 -0.3125 5.75 C-3.2825 5.255 -3.2825 5.255 -6.3125 4.75 C-6.3125 6.4 -6.3125 8.05 -6.3125 9.75 C-6.6425 9.75 -6.9725 9.75 -7.3125 9.75 C-7.625 7 -7.625 7 -7.3125 3.75 C-3.50153592 -0.37854442 -3.50153592 -0.37854442 0 0 Z " fill="#39423E" transform="translate(195.3125,67.25)"/>
<path d="M0 0 C0.66 0 1.32 0 2 0 C2 0.66 2 1.32 2 2 C4.64 2.33 7.28 2.66 10 3 C10 3.99 10 4.98 10 6 C6.98088413 6.92250763 5.6004589 7.31690887 2.75 5.8125 C0.84855563 3.8431469 0.36911958 2.67611698 0 0 Z " fill="#3B4635" transform="translate(185,96)"/>
<path d="M0 0 C4.62 0.66 9.24 1.32 14 2 C14 2.33 14 2.66 14 3 C12.741875 3.185625 11.48375 3.37125 10.1875 3.5625 C9.12595703 3.71912109 9.12595703 3.71912109 8.04296875 3.87890625 C6 4 6 4 3 3 C2.67 3.66 2.34 4.32 2 5 C2 4.34 2 3.68 2 3 C1.34 3 0.68 3 0 3 C0 2.01 0 1.02 0 0 Z " fill="#31332A" transform="translate(67,120)"/>
<path d="M0 0 C0.99 0 1.98 0 3 0 C3 3.3 3 6.6 3 10 C2.01 10 1.02 10 0 10 C0 6.7 0 3.4 0 0 Z " fill="#858460" transform="translate(82,127)"/>
<path d="M0 0 C2.475 0.495 2.475 0.495 5 1 C5 2.98 5 4.96 5 7 C3.68 7.33 2.36 7.66 1 8 C0.67 5.36 0.34 2.72 0 0 Z " fill="#A7A689" transform="translate(45,130)"/>
<path d="M0 0 C1.17219543 0.78345715 2.33763668 1.57702836 3.5 2.375 C4.47453125 3.03628906 4.47453125 3.03628906 5.46875 3.7109375 C5.9740625 4.13632813 6.479375 4.56171875 7 5 C7 5.66 7 6.32 7 7 C5.35 7 3.7 7 2 7 C2 6.34 2 5.68 2 5 C1.01 4.67 0.02 4.34 -1 4 C-0.67 2.68 -0.34 1.36 0 0 Z " fill="#667259" transform="translate(183,97)"/>
<path d="M0 0 C0.33 0.99 0.66 1.98 1 3 C1.99 3 2.98 3 4 3 C4 2.34 4 1.68 4 1 C6.64 1 9.28 1 12 1 C11.38125 1.28875 10.7625 1.5775 10.125 1.875 C7.86674235 2.93720042 7.86674235 2.93720042 6 5 C2.875 4.625 2.875 4.625 0 4 C0 2.68 0 1.36 0 0 Z " fill="#212117" transform="translate(34,120)"/>
<path d="M0 0 C0.33 0 0.66 0 1 0 C1 4.62 1 9.24 1 14 C0.01 14 -0.98 14 -2 14 C-2 14.66 -2 15.32 -2 16 C-2.66 15.67 -3.32 15.34 -4 15 C-3.525625 14.38125 -3.05125 13.7625 -2.5625 13.125 C-0.41947162 8.83894324 -0.26657436 4.73399291 0 0 Z " fill="#3F4B3B" transform="translate(199,83)"/>
<path d="M0 0 C0.66 0.99 1.32 1.98 2 3 C1.34 3 0.68 3 0 3 C-0.33 4.98 -0.66 6.96 -1 9 C-0.01 9.33 0.98 9.66 2 10 C-0.97 9.505 -0.97 9.505 -4 9 C-3.35455571 5.51460083 -1.89865603 2.97180943 0 0 Z " fill="#30322F" transform="translate(136,197)"/>
<path d="M0 0 C1.32 0 2.64 0 4 0 C4 4.62 4 9.24 4 14 C3.01 13.67 2.02 13.34 1 13 C1 12.34 1 11.68 1 11 C1.66 11 2.32 11 3 11 C3 7.7 3 4.4 3 1 C1.68 1.33 0.36 1.66 -1 2 C-0.67 1.34 -0.34 0.68 0 0 Z " fill="#545556" transform="translate(33,125)"/>
<path d="M0 0 C1.65 0 3.3 0 5 0 C5 0.99 5 1.98 5 3 C4.01 3.495 4.01 3.495 3 4 C2.34786708 6.02463255 2.34786708 6.02463255 2 8 C0 6 0 6 -0.125 2.875 C-0.08375 1.92625 -0.0425 0.9775 0 0 Z " fill="#777B63" transform="translate(173,96)"/>
<path d="M0 0 C0.99 0 1.98 0 3 0 C3 0.99 3 1.98 3 3 C3.66 3 4.32 3 5 3 C5 4.98 5 6.96 5 9 C4.6596875 8.0409375 4.6596875 8.0409375 4.3125 7.0625 C3.14749104 4.72806339 3.14749104 4.72806339 0.375 4.25 C-0.40875 4.1675 -1.1925 4.085 -2 4 C-2 3.34 -2 2.68 -2 2 C-1.34 2 -0.68 2 0 2 C0 1.34 0 0.68 0 0 Z " fill="#3E443A" transform="translate(176,82)"/>
<path d="M0 0 C-0.33 1.32 -0.66 2.64 -1 4 C-1.33 3.34 -1.66 2.68 -2 2 C-5.71599191 1.79913557 -6.77208445 1.8480563 -10 4 C-9.1875 2.0625 -9.1875 2.0625 -8 0 C-4.71023192 -1.09658936 -3.28696233 -0.79953138 0 0 Z " fill="#252624" transform="translate(98,225)"/>
<path d="M0 0 C0.66 0 1.32 0 2 0 C1.67 1.65 1.34 3.3 1 5 C-2.3 5 -5.6 5 -9 5 C-8.67 4.34 -8.34 3.68 -8 3 C-5.69 3.33 -3.38 3.66 -1 4 C-0.67 2.68 -0.34 1.36 0 0 Z " fill="#353734" transform="translate(73,243)"/>
<path d="M0 0 C2.64 0 5.28 0 8 0 C8 0.66 8 1.32 8 2 C7.01 2 6.02 2 5 2 C5 2.66 5 3.32 5 4 C3.35 4 1.7 4 0 4 C0 2.66666667 0 1.33333333 0 0 Z " fill="#323730" transform="translate(183,109)"/>
<path d="M0 0 C0.33 0.99 0.66 1.98 1 3 C-0.43359375 5.04296875 -0.43359375 5.04296875 -2.4375 7.1875 C-3.09621094 7.90292969 -3.75492188 8.61835937 -4.43359375 9.35546875 C-4.95050781 9.89816406 -5.46742188 10.44085938 -6 11 C-6.33 10.34 -6.66 9.68 -7 9 C-6.360625 8.236875 -5.72125 7.47375 -5.0625 6.6875 C-2.85767219 4.11753287 -2.85767219 4.11753287 -2 1 C-1.34 0.67 -0.68 0.34 0 0 Z " fill="#1C1E1A" transform="translate(212,93)"/>
<path d="M0 0 C1.65 0 3.3 0 5 0 C5 1.65 5 3.3 5 5 C4.01 5 3.02 5 2 5 C2 4.34 2 3.68 2 3 C1.34 3 0.68 3 0 3 C0 2.01 0 1.02 0 0 Z " fill="#373A39" transform="translate(14,119)"/>
<path d="M0 0 C0.66 0.33 1.32 0.66 2 1 C1.67 2.65 1.34 4.3 1 6 C0.34 6 -0.32 6 -1 6 C-1 8.31 -1 10.62 -1 13 C-1.33 13 -1.66 13 -2 13 C-2.16682272 8.07872966 -2.24828052 4.49656104 0 0 Z " fill="#272B2C" transform="translate(130,164)"/>
<path d="M0 0 C0.66 0 1.32 0 2 0 C2.268125 0.598125 2.53625 1.19625 2.8125 1.8125 C3.98493467 3.97224808 5.19369282 5.35790256 7 7 C2.25 6.125 2.25 6.125 0 5 C0 3.35 0 1.7 0 0 Z " fill="#262011" transform="translate(42,144)"/>
<path d="M0 0 C0.99 0.33 1.98 0.66 3 1 C2.34 1 1.68 1 1 1 C0.67 1.66 0.34 2.32 0 3 C0 2.01 0 1.02 0 0 Z M0 3 C-0.33 4.65 -0.66 6.3 -1 8 C-2.32 7.34 -3.64 6.68 -5 6 C-2.25 3 -2.25 3 0 3 Z " fill="#292D2C" transform="translate(88,185)"/>
<path d="M0 0 C0.99 0 1.98 0 3 0 C3.66 1.65 4.32 3.3 5 5 C3.02 5 1.04 5 -1 5 C-0.67 3.35 -0.34 1.7 0 0 Z " fill="#303130" transform="translate(29,132)"/>
<path d="M0 0 C2.4375 0.375 2.4375 0.375 5 1 C5.33 1.66 5.66 2.32 6 3 C5.34 3.66 4.68 4.32 4 5 C2.68 4.34 1.36 3.68 0 3 C0 2.01 0 1.02 0 0 Z " fill="#969C82" transform="translate(178,102)"/>
<path d="M0 0 C1.9375 0.75 1.9375 0.75 4 2 C4.75 4.125 4.75 4.125 5 6 C3.68 5.67 2.36 5.34 1 5 C0.67 3.35 0.34 1.7 0 0 Z " fill="#3A3A38" transform="translate(50,82)"/>
<path d="M0 0 C1.17571451 3.67410785 1.07366746 7.16929183 1 11 C0.67 11 0.34 11 0 11 C0 9.02 0 7.04 0 5 C-0.66 5 -1.32 5 -2 5 C-2 4.01 -2 3.02 -2 2 C-2.66 1.67 -3.32 1.34 -4 1 C-2 0 -2 0 0 0 Z " fill="#242922" transform="translate(181,80)"/>
<path d="M0 0 C1.32 0.33 2.64 0.66 4 1 C4 1.99 4 2.98 4 4 C2.02 4 0.04 4 -2 4 C-2.33 3.34 -2.66 2.68 -3 2 C-2.01 2 -1.02 2 0 2 C0 1.34 0 0.68 0 0 Z " fill="#3F5156" transform="translate(194,77)"/>
<path d="M0 0 C-1.45255699 3.82946843 -3.42895561 5.12050295 -7 7 C-7 6.01 -7 5.02 -7 4 C-2.65714286 0 -2.65714286 0 0 0 Z " fill="#3A3934" transform="translate(7,227)"/>
<path d="M0 0 C0.66 0.33 1.32 0.66 2 1 C2 2.32 2 3.64 2 5 C2.66 5.66 3.32 6.32 4 7 C2.35 7.33 0.7 7.66 -1 8 C-1.04241723 5.66705225 -1.04092937 3.33297433 -1 1 C-0.67 0.67 -0.34 0.34 0 0 Z " fill="#484C4B" transform="translate(19,119)"/>
<path d="M0 0 C0.33 1.32 0.66 2.64 1 4 C-0.65 4.33 -2.3 4.66 -4 5 C-3.6875 3.0625 -3.6875 3.0625 -3 1 C-2.01 0.67 -1.02 0.34 0 0 Z " fill="#292A29" transform="translate(112,220)"/>
<path d="M0 0 C0.33 0.66 0.66 1.32 1 2 C0.01 3.485 0.01 3.485 -1 5 C-3.97 4.505 -3.97 4.505 -7 4 C-7 3.67 -7 3.34 -7 3 C-5.35 3 -3.7 3 -2 3 C-2 2.34 -2 1.68 -2 1 C-1.34 0.67 -0.68 0.34 0 0 Z " fill="#1E201D" transform="translate(144,206)"/>
<path d="M0 0 C0.33 0 0.66 0 1 0 C1 3.3 1 6.6 1 10 C-0.32 9.67 -1.64 9.34 -3 9 C-3 8.34 -3 7.68 -3 7 C-2.34 7 -1.68 7 -1 7 C-0.67 4.69 -0.34 2.38 0 0 Z " fill="#717478" transform="translate(35,126)"/>
</svg>
